<svg xmlns="http://www.w3.org/2000/svg" width="400" height="400" viewBox="0 0 400 400"><title>Gwen AI Avatar</title><desc>Abstract avatar logo for Gwen, Shivam&apos;s personal AI assistant.</desc><style>@keyframes slowSpin{0%{transform:rotate(0deg)}to{transform:rotate(360deg)}}@keyframes slowSpinR{0%{transform:rotate(0deg)}to{transform:rotate(-360deg)}}@keyframes pulse{0%,to{opacity:.75}50%{opacity:1}}@keyframes floatA{0%,to{transform:translateY(0)}50%{transform:translateY(-6px)}}@keyframes floatB{0%,to{transform:translateY(0)}50%{transform:translateY(4px)}}@keyframes twinkle{0%,to{opacity:.25}50%{opacity:.9}}.floatA{animation:floatA 4s ease-in-out infinite}.floatB{animation:floatB 5s ease-in-out infinite}.tw1{animation:twinkle 2.5s ease-in-out infinite}.tw2{animation:twinkle 3.5s ease-in-out infinite .8s}.tw3{animation:twinkle 2s ease-in-out infinite 1.4s}.tw4{animation:twinkle 4s ease-in-out infinite .3s}.tw5{animation:twinkle 3s ease-in-out infinite 1.9s}</style><rect width="400" height="400" fill="#faf7f2" rx="200"/><circle cx="200" cy="200" r="160" fill="#f5efe6" opacity="0.5"/><circle cx="200" cy="200" r="118" fill="#eee3d3" opacity="0.45"/><g style="transform-origin:200px 200px;animation:slowSpin 40s linear infinite"><ellipse cx="200" cy="200" fill="none" stroke="#e0c9a8" stroke-width="0.8" opacity="0.4" rx="148" ry="46" transform="rotate(-20 200 200)"/><circle cx="348" cy="194" r="4" fill="#d4a574" opacity="0.35"/><circle cx="52" cy="206" r="3" fill="#c17d4a" opacity="0.30"/></g><g style="transform-origin:200px 200px;animation:slowSpinR 28s linear infinite"><ellipse cx="200" cy="200" fill="none" stroke="#c17d4a" opacity="0.25" rx="118" ry="38" transform="rotate(35 200 200)"/><circle cx="200" cy="82" r="5" fill="#c17d4a" opacity="0.50"/><circle cx="200" cy="318" r="3.5" fill="#8b5e3c" opacity="0.40"/></g><g style="transform-origin:200px 200px;animation:slowSpin 18s linear infinite"><ellipse cx="200" cy="200" fill="none" stroke="#8b5e3c" stroke-width="1.2" opacity="0.30" rx="90" ry="28" transform="rotate(-10 200 200)"/><circle cx="290" cy="200" r="6" fill="#c17d4a" opacity="0.70"/><circle cx="110" cy="200" r="4" fill="#8b5e3c" opacity="0.50"/></g><circle cx="200" cy="200" r="68" fill="#e8d5be" opacity="0.50"/><circle cx="200" cy="200" r="54" fill="#dfc4a0" opacity="0.60"/><circle cx="200" cy="200" r="42" fill="#c17d4a" opacity="0.85" style="animation:pulse 3s ease-in-out infinite"/><circle cx="200" cy="200" r="32" fill="#d4956a" opacity="0.60"/><circle cx="200" cy="200" r="20" fill="#e8bf96" opacity="0.50"/><circle cx="200" cy="200" r="11" fill="#faf7f2" opacity="0.70"/><circle cx="188" cy="189" r="6" fill="#faf7f2" opacity="0.22"/><path fill="#c17d4a" d="M148 96 151 106 161 106 153 112 156 122 148 116 140 122 143 112 135 106 145 106z" class="tw1 floatA" opacity="0.5"/><path fill="#8b5e3c" d="M268 90 270 97 277 97 272 101 274 108 268 104 262 108 264 101 259 97 266 97z" class="tw2 floatB" opacity="0.45"/><path stroke="#c17d4a" stroke-width="1.5" d="M62 142 62 152M57 147 67 147" class="tw3" opacity="0.5"/><path stroke="#8b5e3c" stroke-width="1.5" d="M338 256 338 265M333 260 343 260" class="tw4 floatA" opacity="0.4"/><path stroke="#c17d4a" stroke-width="1.2" d="M76 272 76 280M72 276 80 276" class="tw5 floatB" opacity="0.35"/><circle cx="240" cy="112" r="3" fill="#d4a574" class="tw1" opacity="0.50"/><circle cx="318" cy="152" r="2.5" fill="#c17d4a" class="tw3" opacity="0.40"/><circle cx="80" cy="258" r="2" fill="#8b5e3c" class="tw2" opacity="0.35"/><circle cx="316" cy="260" r="2.5" fill="#d4a574" class="tw4" opacity="0.40"/><circle cx="128" cy="118" r="2" fill="#c17d4a" class="tw5" opacity="0.35"/><circle cx="160" cy="318" r="3" fill="#8b5e3c" class="tw1" opacity="0.30"/><circle cx="264" cy="300" r="2" fill="#d4a574" class="tw2" opacity="0.35"/><rect width="64" height="0.8" x="168" y="344" fill="#e0d9cf" rx="0.4"/><text x="200" y="366" fill="#2c2825" font-family="Georgia, 'Times New Roman', serif" font-size="20" font-style="italic" opacity="0.88" text-anchor="middle">Gwen</text><text x="200" y="382" fill="#7a6e65" font-family="Georgia, 'Times New Roman', serif" font-size="9" letter-spacing="3" opacity="0.65" text-anchor="middle">PERSONAL AI</text><text x="200" y="396" fill="#a89e94" font-family="Georgia, 'Times New Roman', serif" font-size="8" font-style="italic" opacity="0.55" text-anchor="middle">Shivam&apos;s digital twin</text></svg>